%TF.GenerationSoftware,KiCad,Pcbnew,(5.1.6-0-10_14)*%
%TF.CreationDate,2020-08-25T09:51:22+08:00*%
%TF.ProjectId,0805-RC,30383035-2d52-4432-9e6b-696361645f70,rev?*%
%TF.SameCoordinates,Original*%
%TF.FileFunction,Legend,Bot*%
%TF.FilePolarity,Positive*%
%FSLAX46Y46*%
G04 Gerber Fmt 4.6, Leading zero omitted, Abs format (unit mm)*
G04 Created by KiCad (PCBNEW (5.1.6-0-10_14)) date 2020-08-25 09:51:22*
%MOMM*%
%LPD*%
G01*
G04 APERTURE LIST*
%ADD10C,0.125000*%
%ADD11C,0.120000*%
%ADD12C,0.150000*%
G04 APERTURE END LIST*
D10*
X156436190Y-50228571D02*
X155936190Y-50228571D01*
X156436190Y-50442857D02*
X156174285Y-50442857D01*
X156126666Y-50419047D01*
X156102857Y-50371428D01*
X156102857Y-50300000D01*
X156126666Y-50252380D01*
X156150476Y-50228571D01*
X156102857Y-50680952D02*
X156531428Y-50680952D01*
X156579047Y-50657142D01*
X156602857Y-50609523D01*
X156602857Y-50585714D01*
X155936190Y-50680952D02*
X155960000Y-50657142D01*
X155983809Y-50680952D01*
X155960000Y-50704761D01*
X155936190Y-50680952D01*
X155983809Y-50680952D01*
X156436190Y-50919047D02*
X156102857Y-50919047D01*
X155936190Y-50919047D02*
X155960000Y-50895238D01*
X155983809Y-50919047D01*
X155960000Y-50942857D01*
X155936190Y-50919047D01*
X155983809Y-50919047D01*
X156102857Y-51157142D02*
X156436190Y-51157142D01*
X156150476Y-51157142D02*
X156126666Y-51180952D01*
X156102857Y-51228571D01*
X156102857Y-51300000D01*
X156126666Y-51347619D01*
X156174285Y-51371428D01*
X156436190Y-51371428D01*
X158523809Y-48752380D02*
X158500000Y-48776190D01*
X158476190Y-48823809D01*
X158476190Y-48942857D01*
X158500000Y-48990476D01*
X158523809Y-49014285D01*
X158571428Y-49038095D01*
X158619047Y-49038095D01*
X158690476Y-49014285D01*
X158976190Y-48728571D01*
X158976190Y-49038095D01*
X158476190Y-49347619D02*
X158476190Y-49395238D01*
X158500000Y-49442857D01*
X158523809Y-49466666D01*
X158571428Y-49490476D01*
X158666666Y-49514285D01*
X158785714Y-49514285D01*
X158880952Y-49490476D01*
X158928571Y-49466666D01*
X158952380Y-49442857D01*
X158976190Y-49395238D01*
X158976190Y-49347619D01*
X158952380Y-49300000D01*
X158928571Y-49276190D01*
X158880952Y-49252380D01*
X158785714Y-49228571D01*
X158666666Y-49228571D01*
X158571428Y-49252380D01*
X158523809Y-49276190D01*
X158500000Y-49300000D01*
X158476190Y-49347619D01*
X158523809Y-49704761D02*
X158500000Y-49728571D01*
X158476190Y-49776190D01*
X158476190Y-49895238D01*
X158500000Y-49942857D01*
X158523809Y-49966666D01*
X158571428Y-49990476D01*
X158619047Y-49990476D01*
X158690476Y-49966666D01*
X158976190Y-49680952D01*
X158976190Y-49990476D01*
X158476190Y-50300000D02*
X158476190Y-50347619D01*
X158500000Y-50395238D01*
X158523809Y-50419047D01*
X158571428Y-50442857D01*
X158666666Y-50466666D01*
X158785714Y-50466666D01*
X158880952Y-50442857D01*
X158928571Y-50419047D01*
X158952380Y-50395238D01*
X158976190Y-50347619D01*
X158976190Y-50300000D01*
X158952380Y-50252380D01*
X158928571Y-50228571D01*
X158880952Y-50204761D01*
X158785714Y-50180952D01*
X158666666Y-50180952D01*
X158571428Y-50204761D01*
X158523809Y-50228571D01*
X158500000Y-50252380D01*
X158476190Y-50300000D01*
X158928571Y-50680952D02*
X158952380Y-50704761D01*
X158976190Y-50680952D01*
X158952380Y-50657142D01*
X158928571Y-50680952D01*
X158976190Y-50680952D01*
X158476190Y-51014285D02*
X158476190Y-51061904D01*
X158500000Y-51109523D01*
X158523809Y-51133333D01*
X158571428Y-51157142D01*
X158666666Y-51180952D01*
X158785714Y-51180952D01*
X158880952Y-51157142D01*
X158928571Y-51133333D01*
X158952380Y-51109523D01*
X158976190Y-51061904D01*
X158976190Y-51014285D01*
X158952380Y-50966666D01*
X158928571Y-50942857D01*
X158880952Y-50919047D01*
X158785714Y-50895238D01*
X158666666Y-50895238D01*
X158571428Y-50919047D01*
X158523809Y-50942857D01*
X158500000Y-50966666D01*
X158476190Y-51014285D01*
X158690476Y-51466666D02*
X158666666Y-51419047D01*
X158642857Y-51395238D01*
X158595238Y-51371428D01*
X158571428Y-51371428D01*
X158523809Y-51395238D01*
X158500000Y-51419047D01*
X158476190Y-51466666D01*
X158476190Y-51561904D01*
X158500000Y-51609523D01*
X158523809Y-51633333D01*
X158571428Y-51657142D01*
X158595238Y-51657142D01*
X158642857Y-51633333D01*
X158666666Y-51609523D01*
X158690476Y-51561904D01*
X158690476Y-51466666D01*
X158714285Y-51419047D01*
X158738095Y-51395238D01*
X158785714Y-51371428D01*
X158880952Y-51371428D01*
X158928571Y-51395238D01*
X158952380Y-51419047D01*
X158976190Y-51466666D01*
X158976190Y-51561904D01*
X158952380Y-51609523D01*
X158928571Y-51633333D01*
X158880952Y-51657142D01*
X158785714Y-51657142D01*
X158738095Y-51633333D01*
X158714285Y-51609523D01*
X158690476Y-51561904D01*
X158928571Y-51871428D02*
X158952380Y-51895238D01*
X158976190Y-51871428D01*
X158952380Y-51847619D01*
X158928571Y-51871428D01*
X158976190Y-51871428D01*
X158523809Y-52085714D02*
X158500000Y-52109523D01*
X158476190Y-52157142D01*
X158476190Y-52276190D01*
X158500000Y-52323809D01*
X158523809Y-52347619D01*
X158571428Y-52371428D01*
X158619047Y-52371428D01*
X158690476Y-52347619D01*
X158976190Y-52061904D01*
X158976190Y-52371428D01*
X158476190Y-52823809D02*
X158476190Y-52585714D01*
X158714285Y-52561904D01*
X158690476Y-52585714D01*
X158666666Y-52633333D01*
X158666666Y-52752380D01*
X158690476Y-52800000D01*
X158714285Y-52823809D01*
X158761904Y-52847619D01*
X158880952Y-52847619D01*
X158928571Y-52823809D01*
X158952380Y-52800000D01*
X158976190Y-52752380D01*
X158976190Y-52633333D01*
X158952380Y-52585714D01*
X158928571Y-52561904D01*
D11*
%TO.C,J1*%
X156150000Y-47050000D02*
X157480000Y-47050000D01*
X156150000Y-45720000D02*
X156150000Y-47050000D01*
X156150000Y-44450000D02*
X158810000Y-44450000D01*
X158810000Y-44450000D02*
X158810000Y-44390000D01*
X156150000Y-44450000D02*
X156150000Y-44390000D01*
X156150000Y-44390000D02*
X158810000Y-44390000D01*
%TO.C,J2*%
X156150000Y-54550000D02*
X158810000Y-54550000D01*
X156150000Y-54610000D02*
X156150000Y-54550000D01*
X158810000Y-54610000D02*
X158810000Y-54550000D01*
X156150000Y-54610000D02*
X158810000Y-54610000D01*
X156150000Y-55880000D02*
X156150000Y-57210000D01*
X156150000Y-57210000D02*
X157480000Y-57210000D01*
%TO.C,J1*%
D12*
X157813333Y-47502380D02*
X157813333Y-48216666D01*
X157860952Y-48359523D01*
X157956190Y-48454761D01*
X158099047Y-48502380D01*
X158194285Y-48502380D01*
X156813333Y-48502380D02*
X157384761Y-48502380D01*
X157099047Y-48502380D02*
X157099047Y-47502380D01*
X157194285Y-47645238D01*
X157289523Y-47740476D01*
X157384761Y-47788095D01*
%TO.C,J2*%
X157813333Y-53046380D02*
X157813333Y-53760666D01*
X157860952Y-53903523D01*
X157956190Y-53998761D01*
X158099047Y-54046380D01*
X158194285Y-54046380D01*
X157384761Y-53141619D02*
X157337142Y-53094000D01*
X157241904Y-53046380D01*
X157003809Y-53046380D01*
X156908571Y-53094000D01*
X156860952Y-53141619D01*
X156813333Y-53236857D01*
X156813333Y-53332095D01*
X156860952Y-53474952D01*
X157432380Y-54046380D01*
X156813333Y-54046380D01*
%TD*%
M02*
