%TF.GenerationSoftware,KiCad,Pcbnew,(5.1.6-0-10_14)*%
%TF.CreationDate,2020-08-25T14:43:37+08:00*%
%TF.ProjectId,SON-6C-S5420,534f4e2d-3643-42d5-9335-3432302e6b69,rev?*%
%TF.SameCoordinates,Original*%
%TF.FileFunction,Legend,Top*%
%TF.FilePolarity,Positive*%
%FSLAX46Y46*%
G04 Gerber Fmt 4.6, Leading zero omitted, Abs format (unit mm)*
G04 Created by KiCad (PCBNEW (5.1.6-0-10_14)) date 2020-08-25 14:43:37*
%MOMM*%
%LPD*%
G01*
G04 APERTURE LIST*
%ADD10C,0.125000*%
%ADD11C,0.150000*%
G04 APERTURE END LIST*
D10*
X145855714Y-64972380D02*
X145927142Y-64996190D01*
X146046190Y-64996190D01*
X146093809Y-64972380D01*
X146117619Y-64948571D01*
X146141428Y-64900952D01*
X146141428Y-64853333D01*
X146117619Y-64805714D01*
X146093809Y-64781904D01*
X146046190Y-64758095D01*
X145950952Y-64734285D01*
X145903333Y-64710476D01*
X145879523Y-64686666D01*
X145855714Y-64639047D01*
X145855714Y-64591428D01*
X145879523Y-64543809D01*
X145903333Y-64520000D01*
X145950952Y-64496190D01*
X146070000Y-64496190D01*
X146141428Y-64520000D01*
X146450952Y-64496190D02*
X146546190Y-64496190D01*
X146593809Y-64520000D01*
X146641428Y-64567619D01*
X146665238Y-64662857D01*
X146665238Y-64829523D01*
X146641428Y-64924761D01*
X146593809Y-64972380D01*
X146546190Y-64996190D01*
X146450952Y-64996190D01*
X146403333Y-64972380D01*
X146355714Y-64924761D01*
X146331904Y-64829523D01*
X146331904Y-64662857D01*
X146355714Y-64567619D01*
X146403333Y-64520000D01*
X146450952Y-64496190D01*
X146879523Y-64996190D02*
X146879523Y-64496190D01*
X147165238Y-64996190D01*
X147165238Y-64496190D01*
X147403333Y-64805714D02*
X147784285Y-64805714D01*
X148236666Y-64496190D02*
X148141428Y-64496190D01*
X148093809Y-64520000D01*
X148070000Y-64543809D01*
X148022380Y-64615238D01*
X147998571Y-64710476D01*
X147998571Y-64900952D01*
X148022380Y-64948571D01*
X148046190Y-64972380D01*
X148093809Y-64996190D01*
X148189047Y-64996190D01*
X148236666Y-64972380D01*
X148260476Y-64948571D01*
X148284285Y-64900952D01*
X148284285Y-64781904D01*
X148260476Y-64734285D01*
X148236666Y-64710476D01*
X148189047Y-64686666D01*
X148093809Y-64686666D01*
X148046190Y-64710476D01*
X148022380Y-64734285D01*
X147998571Y-64781904D01*
X148784285Y-64948571D02*
X148760476Y-64972380D01*
X148689047Y-64996190D01*
X148641428Y-64996190D01*
X148570000Y-64972380D01*
X148522380Y-64924761D01*
X148498571Y-64877142D01*
X148474761Y-64781904D01*
X148474761Y-64710476D01*
X148498571Y-64615238D01*
X148522380Y-64567619D01*
X148570000Y-64520000D01*
X148641428Y-64496190D01*
X148689047Y-64496190D01*
X148760476Y-64520000D01*
X148784285Y-64543809D01*
X147415238Y-66020190D02*
X147320000Y-66020190D01*
X147272380Y-66044000D01*
X147248571Y-66067809D01*
X147200952Y-66139238D01*
X147177142Y-66234476D01*
X147177142Y-66424952D01*
X147200952Y-66472571D01*
X147224761Y-66496380D01*
X147272380Y-66520190D01*
X147367619Y-66520190D01*
X147415238Y-66496380D01*
X147439047Y-66472571D01*
X147462857Y-66424952D01*
X147462857Y-66305904D01*
X147439047Y-66258285D01*
X147415238Y-66234476D01*
X147367619Y-66210666D01*
X147272380Y-66210666D01*
X147224761Y-66234476D01*
X147200952Y-66258285D01*
X147177142Y-66305904D01*
X142335238Y-66186857D02*
X142335238Y-66520190D01*
X142216190Y-65996380D02*
X142097142Y-66353523D01*
X142406666Y-66353523D01*
X142073333Y-62972190D02*
X142382857Y-62972190D01*
X142216190Y-63162666D01*
X142287619Y-63162666D01*
X142335238Y-63186476D01*
X142359047Y-63210285D01*
X142382857Y-63257904D01*
X142382857Y-63376952D01*
X142359047Y-63424571D01*
X142335238Y-63448380D01*
X142287619Y-63472190D01*
X142144761Y-63472190D01*
X142097142Y-63448380D01*
X142073333Y-63424571D01*
X147462857Y-63472190D02*
X147177142Y-63472190D01*
X147320000Y-63472190D02*
X147320000Y-62972190D01*
X147272380Y-63043619D01*
X147224761Y-63091238D01*
X147177142Y-63115047D01*
%TO.C,U1*%
D11*
X142708380Y-65531904D02*
X143517904Y-65531904D01*
X143613142Y-65484285D01*
X143660761Y-65436666D01*
X143708380Y-65341428D01*
X143708380Y-65150952D01*
X143660761Y-65055714D01*
X143613142Y-65008095D01*
X143517904Y-64960476D01*
X142708380Y-64960476D01*
X143708380Y-63960476D02*
X143708380Y-64531904D01*
X143708380Y-64246190D02*
X142708380Y-64246190D01*
X142851238Y-64341428D01*
X142946476Y-64436666D01*
X142994095Y-64531904D01*
%TD*%
M02*
