%TF.GenerationSoftware,KiCad,Pcbnew,(5.1.6-0-10_14)*%
%TF.CreationDate,2020-08-25T11:25:47+08:00*%
%TF.ProjectId,0805-RC-dual,30383035-2d52-4432-9d64-75616c2e6b69,rev?*%
%TF.SameCoordinates,Original*%
%TF.FileFunction,Soldermask,Top*%
%TF.FilePolarity,Negative*%
%FSLAX46Y46*%
G04 Gerber Fmt 4.6, Leading zero omitted, Abs format (unit mm)*
G04 Created by KiCad (PCBNEW (5.1.6-0-10_14)) date 2020-08-25 11:25:47*
%MOMM*%
%LPD*%
G01*
G04 APERTURE LIST*
%ADD10R,1.800000X1.800000*%
%ADD11O,1.800000X1.800000*%
G04 APERTURE END LIST*
D10*
%TO.C,J1*%
X139700000Y-53340000D03*
D11*
X142240000Y-53340000D03*
%TD*%
%TO.C,J2*%
X139700000Y-63500000D03*
D10*
X142240000Y-63500000D03*
%TD*%
%TO.C,R1*%
G36*
G01*
X139221738Y-56761000D02*
X140178262Y-56761000D01*
G75*
G02*
X140450000Y-57032738I0J-271738D01*
G01*
X140450000Y-57739262D01*
G75*
G02*
X140178262Y-58011000I-271738J0D01*
G01*
X139221738Y-58011000D01*
G75*
G02*
X138950000Y-57739262I0J271738D01*
G01*
X138950000Y-57032738D01*
G75*
G02*
X139221738Y-56761000I271738J0D01*
G01*
G37*
G36*
G01*
X139221738Y-58811000D02*
X140178262Y-58811000D01*
G75*
G02*
X140450000Y-59082738I0J-271738D01*
G01*
X140450000Y-59789262D01*
G75*
G02*
X140178262Y-60061000I-271738J0D01*
G01*
X139221738Y-60061000D01*
G75*
G02*
X138950000Y-59789262I0J271738D01*
G01*
X138950000Y-59082738D01*
G75*
G02*
X139221738Y-58811000I271738J0D01*
G01*
G37*
%TD*%
%TO.C,R2*%
G36*
G01*
X141761738Y-58811000D02*
X142718262Y-58811000D01*
G75*
G02*
X142990000Y-59082738I0J-271738D01*
G01*
X142990000Y-59789262D01*
G75*
G02*
X142718262Y-60061000I-271738J0D01*
G01*
X141761738Y-60061000D01*
G75*
G02*
X141490000Y-59789262I0J271738D01*
G01*
X141490000Y-59082738D01*
G75*
G02*
X141761738Y-58811000I271738J0D01*
G01*
G37*
G36*
G01*
X141761738Y-56761000D02*
X142718262Y-56761000D01*
G75*
G02*
X142990000Y-57032738I0J-271738D01*
G01*
X142990000Y-57739262D01*
G75*
G02*
X142718262Y-58011000I-271738J0D01*
G01*
X141761738Y-58011000D01*
G75*
G02*
X141490000Y-57739262I0J271738D01*
G01*
X141490000Y-57032738D01*
G75*
G02*
X141761738Y-56761000I271738J0D01*
G01*
G37*
%TD*%
M02*
