%TF.GenerationSoftware,KiCad,Pcbnew,(5.1.6-0-10_14)*%
%TF.CreationDate,2020-08-25T11:25:47+08:00*%
%TF.ProjectId,0805-RC-dual,30383035-2d52-4432-9d64-75616c2e6b69,rev?*%
%TF.SameCoordinates,Original*%
%TF.FileFunction,Legend,Top*%
%TF.FilePolarity,Positive*%
%FSLAX46Y46*%
G04 Gerber Fmt 4.6, Leading zero omitted, Abs format (unit mm)*
G04 Created by KiCad (PCBNEW (5.1.6-0-10_14)) date 2020-08-25 11:25:47*
%MOMM*%
%LPD*%
G01*
G04 APERTURE LIST*
%ADD10C,0.125000*%
%ADD11C,0.120000*%
%ADD12C,0.150000*%
G04 APERTURE END LIST*
D10*
X143490190Y-60043047D02*
X143490190Y-59995428D01*
X143514000Y-59947809D01*
X143537809Y-59924000D01*
X143585428Y-59900190D01*
X143680666Y-59876380D01*
X143799714Y-59876380D01*
X143894952Y-59900190D01*
X143942571Y-59924000D01*
X143966380Y-59947809D01*
X143990190Y-59995428D01*
X143990190Y-60043047D01*
X143966380Y-60090666D01*
X143942571Y-60114476D01*
X143894952Y-60138285D01*
X143799714Y-60162095D01*
X143680666Y-60162095D01*
X143585428Y-60138285D01*
X143537809Y-60114476D01*
X143514000Y-60090666D01*
X143490190Y-60043047D01*
X143704476Y-59590666D02*
X143680666Y-59638285D01*
X143656857Y-59662095D01*
X143609238Y-59685904D01*
X143585428Y-59685904D01*
X143537809Y-59662095D01*
X143514000Y-59638285D01*
X143490190Y-59590666D01*
X143490190Y-59495428D01*
X143514000Y-59447809D01*
X143537809Y-59424000D01*
X143585428Y-59400190D01*
X143609238Y-59400190D01*
X143656857Y-59424000D01*
X143680666Y-59447809D01*
X143704476Y-59495428D01*
X143704476Y-59590666D01*
X143728285Y-59638285D01*
X143752095Y-59662095D01*
X143799714Y-59685904D01*
X143894952Y-59685904D01*
X143942571Y-59662095D01*
X143966380Y-59638285D01*
X143990190Y-59590666D01*
X143990190Y-59495428D01*
X143966380Y-59447809D01*
X143942571Y-59424000D01*
X143894952Y-59400190D01*
X143799714Y-59400190D01*
X143752095Y-59424000D01*
X143728285Y-59447809D01*
X143704476Y-59495428D01*
X143490190Y-59090666D02*
X143490190Y-59043047D01*
X143514000Y-58995428D01*
X143537809Y-58971619D01*
X143585428Y-58947809D01*
X143680666Y-58924000D01*
X143799714Y-58924000D01*
X143894952Y-58947809D01*
X143942571Y-58971619D01*
X143966380Y-58995428D01*
X143990190Y-59043047D01*
X143990190Y-59090666D01*
X143966380Y-59138285D01*
X143942571Y-59162095D01*
X143894952Y-59185904D01*
X143799714Y-59209714D01*
X143680666Y-59209714D01*
X143585428Y-59185904D01*
X143537809Y-59162095D01*
X143514000Y-59138285D01*
X143490190Y-59090666D01*
X143490190Y-58471619D02*
X143490190Y-58709714D01*
X143728285Y-58733523D01*
X143704476Y-58709714D01*
X143680666Y-58662095D01*
X143680666Y-58543047D01*
X143704476Y-58495428D01*
X143728285Y-58471619D01*
X143775904Y-58447809D01*
X143894952Y-58447809D01*
X143942571Y-58471619D01*
X143966380Y-58495428D01*
X143990190Y-58543047D01*
X143990190Y-58662095D01*
X143966380Y-58709714D01*
X143942571Y-58733523D01*
X143990190Y-57900190D02*
X143656857Y-57638285D01*
X143656857Y-57900190D02*
X143990190Y-57638285D01*
X143537809Y-57471619D02*
X143514000Y-57447809D01*
X143490190Y-57400190D01*
X143490190Y-57281142D01*
X143514000Y-57233523D01*
X143537809Y-57209714D01*
X143585428Y-57185904D01*
X143633047Y-57185904D01*
X143704476Y-57209714D01*
X143990190Y-57495428D01*
X143990190Y-57185904D01*
D11*
%TO.C,R1*%
X140410000Y-58149748D02*
X140410000Y-58672252D01*
X138990000Y-58149748D02*
X138990000Y-58672252D01*
%TO.C,R2*%
X141530000Y-58149748D02*
X141530000Y-58672252D01*
X142950000Y-58149748D02*
X142950000Y-58672252D01*
%TO.C,R1*%
D12*
X138882380Y-56046666D02*
X138406190Y-56380000D01*
X138882380Y-56618095D02*
X137882380Y-56618095D01*
X137882380Y-56237142D01*
X137930000Y-56141904D01*
X137977619Y-56094285D01*
X138072857Y-56046666D01*
X138215714Y-56046666D01*
X138310952Y-56094285D01*
X138358571Y-56141904D01*
X138406190Y-56237142D01*
X138406190Y-56618095D01*
X138882380Y-55094285D02*
X138882380Y-55665714D01*
X138882380Y-55380000D02*
X137882380Y-55380000D01*
X138025238Y-55475238D01*
X138120476Y-55570476D01*
X138168095Y-55665714D01*
%TO.C,R2*%
X141676380Y-56046666D02*
X141200190Y-56380000D01*
X141676380Y-56618095D02*
X140676380Y-56618095D01*
X140676380Y-56237142D01*
X140724000Y-56141904D01*
X140771619Y-56094285D01*
X140866857Y-56046666D01*
X141009714Y-56046666D01*
X141104952Y-56094285D01*
X141152571Y-56141904D01*
X141200190Y-56237142D01*
X141200190Y-56618095D01*
X140771619Y-55665714D02*
X140724000Y-55618095D01*
X140676380Y-55522857D01*
X140676380Y-55284761D01*
X140724000Y-55189523D01*
X140771619Y-55141904D01*
X140866857Y-55094285D01*
X140962095Y-55094285D01*
X141104952Y-55141904D01*
X141676380Y-55713333D01*
X141676380Y-55094285D01*
%TD*%
M02*
