%TF.GenerationSoftware,KiCad,Pcbnew,(5.1.6-0-10_14)*%
%TF.CreationDate,2020-08-25T09:26:27+08:00*%
%TF.ProjectId,TSOT-AD8603,54534f54-2d41-4443-9836-30332e6b6963,rev?*%
%TF.SameCoordinates,Original*%
%TF.FileFunction,Legend,Top*%
%TF.FilePolarity,Positive*%
%FSLAX46Y46*%
G04 Gerber Fmt 4.6, Leading zero omitted, Abs format (unit mm)*
G04 Created by KiCad (PCBNEW (5.1.6-0-10_14)) date 2020-08-25 09:26:27*
%MOMM*%
%LPD*%
G01*
G04 APERTURE LIST*
%ADD10C,0.150000*%
%ADD11C,0.120000*%
G04 APERTURE END LIST*
D10*
X144359380Y-75326666D02*
X144359380Y-74755238D01*
X145359380Y-75040952D02*
X144359380Y-75040952D01*
X145311761Y-74469523D02*
X145359380Y-74326666D01*
X145359380Y-74088571D01*
X145311761Y-73993333D01*
X145264142Y-73945714D01*
X145168904Y-73898095D01*
X145073666Y-73898095D01*
X144978428Y-73945714D01*
X144930809Y-73993333D01*
X144883190Y-74088571D01*
X144835571Y-74279047D01*
X144787952Y-74374285D01*
X144740333Y-74421904D01*
X144645095Y-74469523D01*
X144549857Y-74469523D01*
X144454619Y-74421904D01*
X144407000Y-74374285D01*
X144359380Y-74279047D01*
X144359380Y-74040952D01*
X144407000Y-73898095D01*
X144359380Y-73279047D02*
X144359380Y-73088571D01*
X144407000Y-72993333D01*
X144502238Y-72898095D01*
X144692714Y-72850476D01*
X145026047Y-72850476D01*
X145216523Y-72898095D01*
X145311761Y-72993333D01*
X145359380Y-73088571D01*
X145359380Y-73279047D01*
X145311761Y-73374285D01*
X145216523Y-73469523D01*
X145026047Y-73517142D01*
X144692714Y-73517142D01*
X144502238Y-73469523D01*
X144407000Y-73374285D01*
X144359380Y-73279047D01*
X144359380Y-72564761D02*
X144359380Y-71993333D01*
X145359380Y-72279047D02*
X144359380Y-72279047D01*
X141954285Y-76255619D02*
X142001904Y-76208000D01*
X142097142Y-76160380D01*
X142335238Y-76160380D01*
X142430476Y-76208000D01*
X142478095Y-76255619D01*
X142525714Y-76350857D01*
X142525714Y-76446095D01*
X142478095Y-76588952D01*
X141906666Y-77160380D01*
X142525714Y-77160380D01*
X139938095Y-70064380D02*
X139461904Y-70064380D01*
X139414285Y-70540571D01*
X139461904Y-70492952D01*
X139557142Y-70445333D01*
X139795238Y-70445333D01*
X139890476Y-70492952D01*
X139938095Y-70540571D01*
X139985714Y-70635809D01*
X139985714Y-70873904D01*
X139938095Y-70969142D01*
X139890476Y-71016761D01*
X139795238Y-71064380D01*
X139557142Y-71064380D01*
X139461904Y-71016761D01*
X139414285Y-70969142D01*
X144970476Y-70397714D02*
X144970476Y-71064380D01*
X144732380Y-70016761D02*
X144494285Y-70731047D01*
X145113333Y-70731047D01*
X144700666Y-76160380D02*
X145319714Y-76160380D01*
X144986380Y-76541333D01*
X145129238Y-76541333D01*
X145224476Y-76588952D01*
X145272095Y-76636571D01*
X145319714Y-76731809D01*
X145319714Y-76969904D01*
X145272095Y-77065142D01*
X145224476Y-77112761D01*
X145129238Y-77160380D01*
X144843523Y-77160380D01*
X144748285Y-77112761D01*
X144700666Y-77065142D01*
X139985714Y-77160380D02*
X139414285Y-77160380D01*
X139700000Y-77160380D02*
X139700000Y-76160380D01*
X139604761Y-76303238D01*
X139509523Y-76398476D01*
X139414285Y-76446095D01*
D11*
%TO.C,U1*%
X140730000Y-72780000D02*
X140730000Y-75210000D01*
X143800000Y-74540000D02*
X143800000Y-72780000D01*
D10*
X139242380Y-74421904D02*
X140051904Y-74421904D01*
X140147142Y-74374285D01*
X140194761Y-74326666D01*
X140242380Y-74231428D01*
X140242380Y-74040952D01*
X140194761Y-73945714D01*
X140147142Y-73898095D01*
X140051904Y-73850476D01*
X139242380Y-73850476D01*
X140242380Y-72850476D02*
X140242380Y-73421904D01*
X140242380Y-73136190D02*
X139242380Y-73136190D01*
X139385238Y-73231428D01*
X139480476Y-73326666D01*
X139528095Y-73421904D01*
%TD*%
M02*
