%TF.GenerationSoftware,KiCad,Pcbnew,(5.1.6-0-10_14)*%
%TF.CreationDate,2020-08-25T09:26:27+08:00*%
%TF.ProjectId,TSOT-AD8603,54534f54-2d41-4443-9836-30332e6b6963,rev?*%
%TF.SameCoordinates,Original*%
%TF.FileFunction,Legend,Bot*%
%TF.FilePolarity,Positive*%
%FSLAX46Y46*%
G04 Gerber Fmt 4.6, Leading zero omitted, Abs format (unit mm)*
G04 Created by KiCad (PCBNEW (5.1.6-0-10_14)) date 2020-08-25 09:26:27*
%MOMM*%
%LPD*%
G01*
G04 APERTURE LIST*
%ADD10C,0.125000*%
%ADD11C,0.120000*%
%ADD12C,0.150000*%
G04 APERTURE END LIST*
D10*
X144743357Y-71576666D02*
X144743357Y-71767142D01*
X145076690Y-71648095D02*
X144648119Y-71648095D01*
X144600500Y-71671904D01*
X144576690Y-71719523D01*
X144576690Y-71767142D01*
X145076690Y-72005238D02*
X145052880Y-71957619D01*
X145029071Y-71933809D01*
X144981452Y-71910000D01*
X144838595Y-71910000D01*
X144790976Y-71933809D01*
X144767166Y-71957619D01*
X144743357Y-72005238D01*
X144743357Y-72076666D01*
X144767166Y-72124285D01*
X144790976Y-72148095D01*
X144838595Y-72171904D01*
X144981452Y-72171904D01*
X145029071Y-72148095D01*
X145052880Y-72124285D01*
X145076690Y-72076666D01*
X145076690Y-72005238D01*
X145076690Y-72386190D02*
X144743357Y-72386190D01*
X144838595Y-72386190D02*
X144790976Y-72410000D01*
X144767166Y-72433809D01*
X144743357Y-72481428D01*
X144743357Y-72529047D01*
X144933833Y-73052857D02*
X144933833Y-73290952D01*
X145076690Y-73005238D02*
X144576690Y-73171904D01*
X145076690Y-73338571D01*
X145076690Y-73505238D02*
X144576690Y-73505238D01*
X144576690Y-73624285D01*
X144600500Y-73695714D01*
X144648119Y-73743333D01*
X144695738Y-73767142D01*
X144790976Y-73790952D01*
X144862404Y-73790952D01*
X144957642Y-73767142D01*
X145005261Y-73743333D01*
X145052880Y-73695714D01*
X145076690Y-73624285D01*
X145076690Y-73505238D01*
X144790976Y-74076666D02*
X144767166Y-74029047D01*
X144743357Y-74005238D01*
X144695738Y-73981428D01*
X144671928Y-73981428D01*
X144624309Y-74005238D01*
X144600500Y-74029047D01*
X144576690Y-74076666D01*
X144576690Y-74171904D01*
X144600500Y-74219523D01*
X144624309Y-74243333D01*
X144671928Y-74267142D01*
X144695738Y-74267142D01*
X144743357Y-74243333D01*
X144767166Y-74219523D01*
X144790976Y-74171904D01*
X144790976Y-74076666D01*
X144814785Y-74029047D01*
X144838595Y-74005238D01*
X144886214Y-73981428D01*
X144981452Y-73981428D01*
X145029071Y-74005238D01*
X145052880Y-74029047D01*
X145076690Y-74076666D01*
X145076690Y-74171904D01*
X145052880Y-74219523D01*
X145029071Y-74243333D01*
X144981452Y-74267142D01*
X144886214Y-74267142D01*
X144838595Y-74243333D01*
X144814785Y-74219523D01*
X144790976Y-74171904D01*
X144576690Y-74695714D02*
X144576690Y-74600476D01*
X144600500Y-74552857D01*
X144624309Y-74529047D01*
X144695738Y-74481428D01*
X144790976Y-74457619D01*
X144981452Y-74457619D01*
X145029071Y-74481428D01*
X145052880Y-74505238D01*
X145076690Y-74552857D01*
X145076690Y-74648095D01*
X145052880Y-74695714D01*
X145029071Y-74719523D01*
X144981452Y-74743333D01*
X144862404Y-74743333D01*
X144814785Y-74719523D01*
X144790976Y-74695714D01*
X144767166Y-74648095D01*
X144767166Y-74552857D01*
X144790976Y-74505238D01*
X144814785Y-74481428D01*
X144862404Y-74457619D01*
X144576690Y-75052857D02*
X144576690Y-75100476D01*
X144600500Y-75148095D01*
X144624309Y-75171904D01*
X144671928Y-75195714D01*
X144767166Y-75219523D01*
X144886214Y-75219523D01*
X144981452Y-75195714D01*
X145029071Y-75171904D01*
X145052880Y-75148095D01*
X145076690Y-75100476D01*
X145076690Y-75052857D01*
X145052880Y-75005238D01*
X145029071Y-74981428D01*
X144981452Y-74957619D01*
X144886214Y-74933809D01*
X144767166Y-74933809D01*
X144671928Y-74957619D01*
X144624309Y-74981428D01*
X144600500Y-75005238D01*
X144576690Y-75052857D01*
X144576690Y-75386190D02*
X144576690Y-75695714D01*
X144767166Y-75529047D01*
X144767166Y-75600476D01*
X144790976Y-75648095D01*
X144814785Y-75671904D01*
X144862404Y-75695714D01*
X144981452Y-75695714D01*
X145029071Y-75671904D01*
X145052880Y-75648095D01*
X145076690Y-75600476D01*
X145076690Y-75457619D01*
X145052880Y-75410000D01*
X145029071Y-75386190D01*
X145951690Y-70636190D02*
X145451690Y-70636190D01*
X145951690Y-70850476D02*
X145689785Y-70850476D01*
X145642166Y-70826666D01*
X145618357Y-70779047D01*
X145618357Y-70707619D01*
X145642166Y-70660000D01*
X145665976Y-70636190D01*
X145618357Y-71088571D02*
X146046928Y-71088571D01*
X146094547Y-71064761D01*
X146118357Y-71017142D01*
X146118357Y-70993333D01*
X145451690Y-71088571D02*
X145475500Y-71064761D01*
X145499309Y-71088571D01*
X145475500Y-71112380D01*
X145451690Y-71088571D01*
X145499309Y-71088571D01*
X145951690Y-71326666D02*
X145618357Y-71326666D01*
X145451690Y-71326666D02*
X145475500Y-71302857D01*
X145499309Y-71326666D01*
X145475500Y-71350476D01*
X145451690Y-71326666D01*
X145499309Y-71326666D01*
X145618357Y-71564761D02*
X145951690Y-71564761D01*
X145665976Y-71564761D02*
X145642166Y-71588571D01*
X145618357Y-71636190D01*
X145618357Y-71707619D01*
X145642166Y-71755238D01*
X145689785Y-71779047D01*
X145951690Y-71779047D01*
X145927880Y-72040952D02*
X145951690Y-72040952D01*
X145999309Y-72017142D01*
X146023119Y-71993333D01*
X145499309Y-72612380D02*
X145475500Y-72636190D01*
X145451690Y-72683809D01*
X145451690Y-72802857D01*
X145475500Y-72850476D01*
X145499309Y-72874285D01*
X145546928Y-72898095D01*
X145594547Y-72898095D01*
X145665976Y-72874285D01*
X145951690Y-72588571D01*
X145951690Y-72898095D01*
X145451690Y-73207619D02*
X145451690Y-73255238D01*
X145475500Y-73302857D01*
X145499309Y-73326666D01*
X145546928Y-73350476D01*
X145642166Y-73374285D01*
X145761214Y-73374285D01*
X145856452Y-73350476D01*
X145904071Y-73326666D01*
X145927880Y-73302857D01*
X145951690Y-73255238D01*
X145951690Y-73207619D01*
X145927880Y-73160000D01*
X145904071Y-73136190D01*
X145856452Y-73112380D01*
X145761214Y-73088571D01*
X145642166Y-73088571D01*
X145546928Y-73112380D01*
X145499309Y-73136190D01*
X145475500Y-73160000D01*
X145451690Y-73207619D01*
X145499309Y-73564761D02*
X145475500Y-73588571D01*
X145451690Y-73636190D01*
X145451690Y-73755238D01*
X145475500Y-73802857D01*
X145499309Y-73826666D01*
X145546928Y-73850476D01*
X145594547Y-73850476D01*
X145665976Y-73826666D01*
X145951690Y-73540952D01*
X145951690Y-73850476D01*
X145451690Y-74160000D02*
X145451690Y-74207619D01*
X145475500Y-74255238D01*
X145499309Y-74279047D01*
X145546928Y-74302857D01*
X145642166Y-74326666D01*
X145761214Y-74326666D01*
X145856452Y-74302857D01*
X145904071Y-74279047D01*
X145927880Y-74255238D01*
X145951690Y-74207619D01*
X145951690Y-74160000D01*
X145927880Y-74112380D01*
X145904071Y-74088571D01*
X145856452Y-74064761D01*
X145761214Y-74040952D01*
X145642166Y-74040952D01*
X145546928Y-74064761D01*
X145499309Y-74088571D01*
X145475500Y-74112380D01*
X145451690Y-74160000D01*
X145904071Y-74540952D02*
X145927880Y-74564761D01*
X145951690Y-74540952D01*
X145927880Y-74517142D01*
X145904071Y-74540952D01*
X145951690Y-74540952D01*
X145451690Y-74874285D02*
X145451690Y-74921904D01*
X145475500Y-74969523D01*
X145499309Y-74993333D01*
X145546928Y-75017142D01*
X145642166Y-75040952D01*
X145761214Y-75040952D01*
X145856452Y-75017142D01*
X145904071Y-74993333D01*
X145927880Y-74969523D01*
X145951690Y-74921904D01*
X145951690Y-74874285D01*
X145927880Y-74826666D01*
X145904071Y-74802857D01*
X145856452Y-74779047D01*
X145761214Y-74755238D01*
X145642166Y-74755238D01*
X145546928Y-74779047D01*
X145499309Y-74802857D01*
X145475500Y-74826666D01*
X145451690Y-74874285D01*
X145665976Y-75326666D02*
X145642166Y-75279047D01*
X145618357Y-75255238D01*
X145570738Y-75231428D01*
X145546928Y-75231428D01*
X145499309Y-75255238D01*
X145475500Y-75279047D01*
X145451690Y-75326666D01*
X145451690Y-75421904D01*
X145475500Y-75469523D01*
X145499309Y-75493333D01*
X145546928Y-75517142D01*
X145570738Y-75517142D01*
X145618357Y-75493333D01*
X145642166Y-75469523D01*
X145665976Y-75421904D01*
X145665976Y-75326666D01*
X145689785Y-75279047D01*
X145713595Y-75255238D01*
X145761214Y-75231428D01*
X145856452Y-75231428D01*
X145904071Y-75255238D01*
X145927880Y-75279047D01*
X145951690Y-75326666D01*
X145951690Y-75421904D01*
X145927880Y-75469523D01*
X145904071Y-75493333D01*
X145856452Y-75517142D01*
X145761214Y-75517142D01*
X145713595Y-75493333D01*
X145689785Y-75469523D01*
X145665976Y-75421904D01*
X145904071Y-75731428D02*
X145927880Y-75755238D01*
X145951690Y-75731428D01*
X145927880Y-75707619D01*
X145904071Y-75731428D01*
X145951690Y-75731428D01*
X145499309Y-75945714D02*
X145475500Y-75969523D01*
X145451690Y-76017142D01*
X145451690Y-76136190D01*
X145475500Y-76183809D01*
X145499309Y-76207619D01*
X145546928Y-76231428D01*
X145594547Y-76231428D01*
X145665976Y-76207619D01*
X145951690Y-75921904D01*
X145951690Y-76231428D01*
X145451690Y-76683809D02*
X145451690Y-76445714D01*
X145689785Y-76421904D01*
X145665976Y-76445714D01*
X145642166Y-76493333D01*
X145642166Y-76612380D01*
X145665976Y-76660000D01*
X145689785Y-76683809D01*
X145737404Y-76707619D01*
X145856452Y-76707619D01*
X145904071Y-76683809D01*
X145927880Y-76660000D01*
X145951690Y-76612380D01*
X145951690Y-76493333D01*
X145927880Y-76445714D01*
X145904071Y-76421904D01*
D11*
%TO.C,J1*%
X146110000Y-69910000D02*
X146110000Y-68580000D01*
X144780000Y-69910000D02*
X146110000Y-69910000D01*
X143510000Y-69910000D02*
X143510000Y-67250000D01*
X143510000Y-67250000D02*
X138370000Y-67250000D01*
X143510000Y-69910000D02*
X138370000Y-69910000D01*
X138370000Y-69910000D02*
X138370000Y-67250000D01*
%TO.C,J2*%
X146110000Y-77410000D02*
X146110000Y-80070000D01*
X140970000Y-77410000D02*
X146110000Y-77410000D01*
X140970000Y-80070000D02*
X146110000Y-80070000D01*
X140970000Y-77410000D02*
X140970000Y-80070000D01*
X139700000Y-77410000D02*
X138370000Y-77410000D01*
X138370000Y-77410000D02*
X138370000Y-78740000D01*
%TO.C,J1*%
D12*
X139485619Y-71199333D02*
X138771333Y-71199333D01*
X138628476Y-71246952D01*
X138533238Y-71342190D01*
X138485619Y-71485047D01*
X138485619Y-71580285D01*
X138485619Y-70199333D02*
X138485619Y-70770761D01*
X138485619Y-70485047D02*
X139485619Y-70485047D01*
X139342761Y-70580285D01*
X139247523Y-70675523D01*
X139199904Y-70770761D01*
%TO.C,J2*%
X138390380Y-76120666D02*
X139104666Y-76120666D01*
X139247523Y-76073047D01*
X139342761Y-75977809D01*
X139390380Y-75834952D01*
X139390380Y-75739714D01*
X138485619Y-76549238D02*
X138438000Y-76596857D01*
X138390380Y-76692095D01*
X138390380Y-76930190D01*
X138438000Y-77025428D01*
X138485619Y-77073047D01*
X138580857Y-77120666D01*
X138676095Y-77120666D01*
X138818952Y-77073047D01*
X139390380Y-76501619D01*
X139390380Y-77120666D01*
%TD*%
M02*
